<svg width="105" height="105" viewBox="0 0 105 105" fill="none" xmlns="http://www.w3.org/2000/svg">
<g id="&#208;&#177;&#209;&#131;&#208;&#187;&#208;&#187;&#208;&#184;&#209;&#130; &#208;&#183;&#208;&#178;&#208;&#181;&#208;&#183;&#208;&#180;&#208;&#176;">
<g id="Star 1" filter="url(#filter0_d_16_2369)">
<path d="M51.7178 56.1239C52.236 56.0418 52.764 56.0418 53.2822 56.1239L54.9625 56.39C55.4807 56.4721 55.9828 56.6352 56.4503 56.8734L57.9661 57.6458C58.4336 57.884 58.8607 58.1943 59.2317 58.5653L60.4347 59.7683C60.8057 60.1393 61.116 60.5664 61.3542 61.0339L62.1266 62.5497C62.3648 63.0172 62.5279 63.5193 62.61 64.0375L62.8761 65.7178C62.9582 66.236 62.9582 66.764 62.8761 67.2822L62.61 68.9625C62.5279 69.4807 62.3648 69.9828 62.1266 70.4503L61.3542 71.9661C61.116 72.4336 60.8057 72.8607 60.4347 73.2317L59.2317 74.4347C58.8607 74.8057 58.4336 75.116 57.9661 75.3542L56.4503 76.1266C55.9828 76.3648 55.4807 76.5279 54.9625 76.61L53.2822 76.8761C52.764 76.9582 52.236 76.9582 51.7178 76.8761L50.0375 76.61C49.5193 76.5279 49.0172 76.3648 48.5497 76.1266L47.0339 75.3542C46.5664 75.116 46.1393 74.8057 45.7683 74.4347L44.5653 73.2317C44.1943 72.8607 43.884 72.4336 43.6458 71.9661L42.8734 70.4503C42.6352 69.9828 42.4721 69.4807 42.39 68.9625L42.1239 67.2822C42.0418 66.764 42.0418 66.236 42.1239 65.7178L42.39 64.0375C42.4721 63.5193 42.6352 63.0172 42.8734 62.5497L43.6458 61.0339C43.884 60.5664 44.1943 60.1393 44.5653 59.7683L45.7683 58.5653C46.1393 58.1943 46.5664 57.884 47.0339 57.6458L48.5497 56.8734C49.0172 56.6352 49.5193 56.4721 50.0375 56.39L51.7178 56.1239Z" fill="url(#paint0_linear_16_2369)"/>
</g>
<path id="Vector" d="M56 64.75L51.7891 68.25L49.875 66.6591" stroke="white" stroke-linecap="round" stroke-linejoin="round"/>
</g>
<defs>
<filter id="filter0_d_16_2369" x="0.0623169" y="0.0625" width="104.875" height="104.875" filterUnits="userSpaceOnUse" color-interpolation-filters="sRGB">
<feFlood flood-opacity="0" result="BackgroundImageFix"/>
<feColorMatrix in="SourceAlpha" type="matrix" values="0 0 0 0 0 0 0 0 0 0 0 0 0 0 0 0 0 0 127 0" result="hardAlpha"/>
<feOffset dy="-14"/>
<feGaussianBlur stdDeviation="21"/>
<feComposite in2="hardAlpha" operator="out"/>
<feColorMatrix type="matrix" values="0 0 0 0 0 0 0 0 0 0 0 0 0 0 0 0 0 0 0.5 0"/>
<feBlend mode="normal" in2="BackgroundImageFix" result="effect1_dropShadow_16_2369"/>
<feBlend mode="normal" in="SourceGraphic" in2="effect1_dropShadow_16_2369" result="shape"/>
</filter>
<linearGradient id="paint0_linear_16_2369" x1="45.75" y1="74.9375" x2="59.625" y2="58.25" gradientUnits="userSpaceOnUse">
<stop stop-color="#099178"/>
<stop offset="1" stop-color="#44D7BC"/>
</linearGradient>
</defs>
</svg>
