<svg width="161" height="12" viewBox="0 0 161 12" fill="none" xmlns="http://www.w3.org/2000/svg">
<path fill-rule="evenodd" clip-rule="evenodd" d="M160.132 2.37673C160.132 2.37679 160.13 2.37623 160.128 2.37485C160.131 2.37599 160.132 2.37668 160.132 2.37673ZM106.72 4.57903C108.025 4.47935 109.329 4.38135 110.634 4.28545C110.656 4.28386 110.899 4.26528 111.334 4.23216C116.633 3.82829 150.316 1.26131 156.005 0.933915C156.328 0.915322 156.817 0.80618 157.373 0.669217C157.495 0.639325 157.619 0.608223 157.745 0.5768C158.183 0.467162 158.637 0.353627 159.04 0.274046C159.535 0.17641 160.036 0.109568 160.341 0.223016C160.42 0.252181 160.534 0.308933 160.64 0.446638C160.755 0.596431 160.924 0.94355 160.909 1.52842C160.898 2.00256 160.766 2.33039 160.703 2.47177C160.626 2.64281 160.533 2.7905 160.442 2.91753C159.606 4.09092 158.661 4.27458 157.792 4.24566C157.459 4.23456 157.118 4.19019 156.791 4.14766C156.691 4.13474 156.593 4.12199 156.497 4.11039C156.075 4.05948 155.679 4.02884 155.304 4.07908C150.677 4.69881 146.049 5.23138 141.42 5.61606C135.745 6.08781 128.614 6.39767 120.59 6.58257C120.587 6.61923 120.583 6.65493 120.579 6.6895C120.508 7.25251 120.379 7.7446 120.187 8.13331C119.997 8.51678 119.774 8.74437 119.552 8.87407C119.126 9.12257 118.637 9.04734 118.191 8.90514C117.847 8.79517 117.478 8.62561 117.13 8.46588C117.021 8.41565 116.914 8.36639 116.81 8.32026C116.357 8.11855 115.968 7.97485 115.659 7.9733C112.27 7.95635 103.629 7.66338 99.3851 7.51948C98.7008 7.49628 98.1308 7.47695 97.7155 7.46328C95.4744 7.64395 93.2328 7.82678 90.9908 8.00964C66.3723 10.0175 41.705 12.0294 17.1452 11.2341C16.8654 11.225 16.6544 10.7303 16.6739 10.129C16.6933 9.52773 16.9359 9.04766 17.2157 9.05672C37.1352 9.70176 57.1221 8.4983 77.1123 6.94815C64.1076 6.7203 51.1018 6.67563 38.0807 6.80788C37.815 6.81058 37.6072 6.37423 37.5984 5.81615C23.2725 5.40577 11.5094 4.96034 5.32028 4.67721C3.60289 4.59864 2.31347 4.53252 1.51727 4.48306C1.12085 4.45844 0.841636 4.43765 0.692857 4.42114C0.655791 4.41703 0.622455 4.41272 0.595817 4.40803C0.583286 4.40582 0.566134 4.40248 0.548451 4.39742C0.538903 4.39458 0.518707 4.38737 0.505971 4.38192C0.483313 4.37066 0.409368 4.31625 0.359505 4.26191C0.193969 3.91331 0.189687 2.83066 0.394242 2.37968C0.456678 2.31229 0.547007 2.2496 0.572999 2.23833C0.606248 2.22557 0.636013 2.22138 0.645144 2.22009L0.64585 2.21999C0.67286 2.21617 0.705948 2.21402 0.739188 2.21251C1.26612 2.18862 4.02674 2.24968 9.51342 2.42736C12.517 2.52462 15.5205 2.62308 18.5239 2.72154C37.6209 3.34759 56.7157 3.97356 75.8202 4.29101C86.5122 4.46868 89.5337 4.47817 93.6856 4.49122C96.5178 4.50012 99.876 4.51067 106.554 4.57739C106.609 4.57794 106.665 4.57849 106.72 4.57903Z" fill="#E92929"/>
</svg>
