<svg width="264" height="98" viewBox="0 0 264 98" fill="none" xmlns="http://www.w3.org/2000/svg">
<g filter="url(#filter0_b_3_6)">
<rect width="264" height="98" rx="15" fill="url(#paint0_linear_3_6)" fill-opacity="0.3"/>
<rect x="1" y="1" width="262" height="96" rx="14" stroke="url(#paint1_linear_3_6)" stroke-width="2"/>
</g>
<path d="M51.25 49.275C48.6667 49.275 46.525 48.775 44.825 47.775C43.3083 46.925 42.1833 45.7417 41.45 44.225C40.8 42.9417 40.475 41.525 40.475 39.975V39.3C40.475 37.8 40.7917 36.425 41.425 35.175C42.175 33.6583 43.2917 32.475 44.775 31.625C46.525 30.6417 48.7167 30.15 51.35 30.15H52.2C55.9 30.15 58.6917 30.8667 60.575 32.3C61.375 32.9 61.9583 33.5917 62.325 34.375C62.6917 35.1417 62.875 35.9333 62.875 36.75V36.8H57.55L57.25 36.2C56.9 35.55 56.05 35.0333 54.7 34.65C53.9833 34.45 53.0167 34.35 51.8 34.35C49.6833 34.35 48.1167 34.8833 47.1 35.95C46.25 36.85 45.825 38.0083 45.825 39.425V39.75C45.825 40.4 45.9333 41.0417 46.15 41.675C46.3667 42.2917 46.7083 42.8417 47.175 43.325C48.2917 44.4917 49.8917 45.075 51.975 45.075C53.8417 45.075 55.2917 44.6583 56.325 43.825C56.7083 43.5083 56.9917 43.1833 57.175 42.85C57.3083 42.55 57.3917 42.325 57.425 42.175H52.375V38.85H63.1V49H59C58.9833 48.7833 58.9083 48.3417 58.775 47.675C58.6417 47.1583 58.5083 46.7417 58.375 46.425C58.2417 46.5917 58.0417 46.8083 57.775 47.075C56.9917 47.8583 55.9 48.4667 54.5 48.9C53.7 49.15 52.75 49.275 51.65 49.275H51.25ZM66.9486 39.475H75.1736V43.55H66.9486V39.475Z" fill="white"/>
<path d="M85.3627 49V34.65H78.1627V30.4H97.6877V34.65H90.4877V49H85.3627ZM117.614 40.05C118.914 40.35 119.914 40.9 120.614 41.7C121.314 42.4833 121.664 43.5417 121.664 44.875V46.8C121.664 47.5167 121.697 48 121.764 48.25C121.814 48.4833 121.881 48.6917 121.964 48.875V49H116.639C116.589 48.8333 116.556 48.7 116.539 48.6C116.489 48.4167 116.464 48.1167 116.464 47.7V46.175C116.464 44.9417 116.197 44.05 115.664 43.5C115.147 42.95 114.256 42.675 112.989 42.675H106.289V49H101.139V30.4H113.664C116.797 30.4 118.997 30.975 120.264 32.125C121.114 32.9083 121.539 33.9917 121.539 35.375V35.625C121.539 36.7583 121.181 37.7167 120.464 38.5C119.764 39.2667 118.814 39.7833 117.614 40.05ZM106.289 38.45H113.464C114.431 38.45 115.139 38.25 115.589 37.85C115.956 37.5333 116.139 37.075 116.139 36.475V36.425C116.139 35.825 115.956 35.3667 115.589 35.05C115.172 34.6833 114.464 34.5 113.464 34.5H106.289V38.45ZM125.675 30.4H142.7V34.45H130.75V37.475H142.325V41.675H130.75V44.9H142.85V49H125.675V30.4ZM163.089 49L151.989 36.95V49H146.964V30.4H152.264L163.139 42.375V30.4H168.139V49H163.089ZM172.745 30.4H182.27C185.304 30.4 187.77 30.8667 189.67 31.8C191.287 32.6 192.487 33.7083 193.27 35.125C193.887 36.3083 194.195 37.6167 194.195 39.05V39.8C194.195 41.3333 193.92 42.7083 193.37 43.925C192.67 45.4583 191.52 46.6417 189.92 47.475C187.97 48.4917 185.429 49 182.295 49H172.745V30.4ZM177.895 44.85H182.045C184.795 44.85 186.712 44.25 187.795 43.05C188.195 42.6 188.47 42.0917 188.62 41.525C188.77 40.9583 188.845 40.35 188.845 39.7V39.55C188.845 38.1167 188.487 37.0167 187.77 36.25C186.704 35.1 184.795 34.525 182.045 34.525H177.895V44.85ZM206.891 49.325C204.175 49.325 202.041 48.9583 200.491 48.225C199.208 47.6083 198.291 46.775 197.741 45.725C197.358 44.9917 197.166 44.1333 197.166 43.15V42.875H202.766C202.8 43.5417 203.05 44.0917 203.516 44.525C204.2 45.2083 205.408 45.55 207.141 45.55H207.316C209.033 45.55 210.25 45.3083 210.966 44.825C211.45 44.5083 211.691 44.0083 211.691 43.325C211.691 42.7083 211.441 42.2583 210.941 41.975C210.341 41.6583 209.325 41.4667 207.891 41.4L205.416 41.325C202.566 41.225 200.466 40.6417 199.116 39.575C197.95 38.6583 197.366 37.4333 197.366 35.9V35.675C197.366 33.9917 197.95 32.7083 199.116 31.825C200.6 30.725 203.1 30.175 206.616 30.175H207.466C211.133 30.175 213.725 30.775 215.241 31.975C216.291 32.825 216.816 34.0417 216.816 35.625V35.9H211.291C211.241 35.6333 211.158 35.3917 211.041 35.175C210.941 34.9417 210.766 34.7333 210.516 34.55C209.816 34.0833 208.683 33.85 207.116 33.85H206.866C205.3 33.85 204.208 33.9917 203.591 34.275C203.058 34.5417 202.791 34.95 202.791 35.5C202.791 36.0333 203.025 36.4333 203.491 36.7C204.041 37.0167 205.008 37.2083 206.391 37.275L208.966 37.375C212.083 37.4917 214.283 38.05 215.566 39.05C216.65 39.8833 217.191 41.1417 217.191 42.825V43.125C217.191 44.8917 216.641 46.2667 215.541 47.25C213.991 48.6333 211.35 49.325 207.616 49.325H206.891Z" fill="#4324FF"/>
<path d="M51.374 71L50.52 69.068H44.892L44.052 71H41.154L45.774 60.584H49.638L54.468 71H51.374ZM49.554 66.926L47.664 62.684L45.83 66.926H49.554ZM73.3352 71L67.1192 64.252V71H64.3052V60.584H67.2732L73.3632 67.29V60.584H76.1632V71H73.3352ZM96.2287 71L95.3747 69.068H89.7467L88.9067 71H86.0087L90.6287 60.584H94.4927L99.3227 71H96.2287ZM94.4087 66.926L92.5187 62.684L90.6847 66.926H94.4087ZM109.16 60.584H112.044V68.55H118.414V71H109.16V60.584ZM130.392 71V67.192L125.226 60.584H128.796L131.918 64.714L135.04 60.584H138.26L133.276 67.206V71H130.392ZM151.305 71V62.964H147.273V60.584H158.207V62.964H154.175V71H151.305ZM171.424 60.584V71H168.54V60.584H171.424ZM187.953 71.154C186.478 71.154 185.255 70.86 184.285 70.272C183.445 69.7773 182.829 69.1053 182.437 68.256C182.101 67.5467 181.933 66.786 181.933 65.974V65.554C181.933 64.7233 182.101 63.958 182.437 63.258C182.847 62.4087 183.463 61.746 184.285 61.27C185.265 60.71 186.487 60.43 187.953 60.43H188.597C190.613 60.43 192.129 60.8687 193.147 61.746C193.585 62.1193 193.907 62.5487 194.113 63.034C194.318 63.5193 194.421 64.0233 194.421 64.546V64.574H191.453C191.434 64.49 191.392 64.3547 191.327 64.168C191.243 63.9533 191.084 63.748 190.851 63.552C190.617 63.3467 190.309 63.174 189.927 63.034C189.535 62.8847 188.984 62.81 188.275 62.81C187.089 62.81 186.212 63.104 185.643 63.692C185.4 63.944 185.218 64.2427 185.097 64.588C184.985 64.924 184.929 65.274 184.929 65.638V65.834C184.929 66.1793 184.985 66.5247 185.097 66.87C185.218 67.206 185.405 67.5093 185.657 67.78C186.245 68.4333 187.122 68.76 188.289 68.76C189.465 68.76 190.337 68.494 190.907 67.962C191.093 67.7753 191.229 67.5887 191.313 67.402C191.397 67.2153 191.443 67.0567 191.453 66.926H194.421V66.968C194.421 67.472 194.318 67.9713 194.113 68.466C193.917 68.9513 193.604 69.3853 193.175 69.768C192.689 70.1973 192.064 70.538 191.299 70.79C190.543 71.0327 189.642 71.154 188.597 71.154H187.953ZM209.916 71.182C208.395 71.182 207.2 70.9767 206.332 70.566C205.614 70.2207 205.1 69.754 204.792 69.166C204.578 68.7553 204.47 68.2747 204.47 67.724V67.57H207.606C207.625 67.9433 207.765 68.2513 208.026 68.494C208.409 68.8767 209.086 69.068 210.056 69.068H210.154C211.116 69.068 211.797 68.9327 212.198 68.662C212.469 68.4847 212.604 68.2047 212.604 67.822C212.604 67.4767 212.464 67.2247 212.184 67.066C211.848 66.8887 211.279 66.7813 210.476 66.744L209.09 66.702C207.494 66.646 206.318 66.3193 205.562 65.722C204.909 65.2087 204.582 64.5227 204.582 63.664V63.538C204.582 62.5953 204.909 61.8767 205.562 61.382C206.393 60.766 207.793 60.458 209.762 60.458H210.238C212.292 60.458 213.743 60.794 214.592 61.466C215.18 61.942 215.474 62.6233 215.474 63.51V63.664H212.38C212.352 63.5147 212.306 63.3793 212.24 63.258C212.184 63.1273 212.086 63.0107 211.946 62.908C211.554 62.6467 210.92 62.516 210.042 62.516H209.902C209.025 62.516 208.414 62.5953 208.068 62.754C207.77 62.9033 207.62 63.132 207.62 63.44C207.62 63.7387 207.751 63.9627 208.012 64.112C208.32 64.2893 208.862 64.3967 209.636 64.434L211.078 64.49C212.824 64.5553 214.056 64.868 214.774 65.428C215.381 65.8947 215.684 66.5993 215.684 67.542V67.71C215.684 68.6993 215.376 69.4693 214.76 70.02C213.892 70.7947 212.413 71.182 210.322 71.182H209.916Z" fill="white"/>
<defs>
<filter id="filter0_b_3_6" x="-45" y="-45" width="354" height="188" filterUnits="userSpaceOnUse" color-interpolation-filters="sRGB">
<feFlood flood-opacity="0" result="BackgroundImageFix"/>
<feGaussianBlur in="BackgroundImageFix" stdDeviation="22.5"/>
<feComposite in2="SourceAlpha" operator="in" result="effect1_backgroundBlur_3_6"/>
<feBlend mode="normal" in="SourceGraphic" in2="effect1_backgroundBlur_3_6" result="shape"/>
</filter>
<linearGradient id="paint0_linear_3_6" x1="34" y1="98" x2="270.63" y2="86.083" gradientUnits="userSpaceOnUse">
<stop stop-color="#4A4949"/>
<stop offset="1" stop-color="#A29D9D"/>
</linearGradient>
<linearGradient id="paint1_linear_3_6" x1="150" y1="2.59699e-07" x2="132.201" y2="85.2466" gradientUnits="userSpaceOnUse">
<stop stop-color="#484848"/>
<stop offset="1" stop-color="#D0CCCC" stop-opacity="0.06"/>
</linearGradient>
</defs>
</svg>
