<svg width="17" height="18" viewBox="0 0 17 18" fill="none" xmlns="http://www.w3.org/2000/svg">
<circle cx="8.20703" cy="8.94531" r="3.73047" fill="#4324FF"/>
<mask id="path-2-inside-1_256_202" fill="white">
<path d="M8.20703 0.738281C10.3837 0.738281 12.4712 1.60295 14.0103 3.14206C15.5494 4.68118 16.4141 6.76867 16.4141 8.94531C16.4141 11.122 15.5494 13.2094 14.0103 14.7486C12.4712 16.2877 10.3837 17.1523 8.20703 17.1523L8.20703 16.4272C10.1914 16.4272 12.0944 15.6389 13.4975 14.2358C14.9007 12.8327 15.6889 10.9296 15.6889 8.94531C15.6889 6.96099 14.9007 5.05794 13.4975 3.65482C12.0944 2.25169 10.1914 1.46342 8.20703 1.46342L8.20703 0.738281Z"/>
</mask>
<path d="M8.20703 0.738281C10.3837 0.738281 12.4712 1.60295 14.0103 3.14206C15.5494 4.68118 16.4141 6.76867 16.4141 8.94531C16.4141 11.122 15.5494 13.2094 14.0103 14.7486C12.4712 16.2877 10.3837 17.1523 8.20703 17.1523L8.20703 16.4272C10.1914 16.4272 12.0944 15.6389 13.4975 14.2358C14.9007 12.8327 15.6889 10.9296 15.6889 8.94531C15.6889 6.96099 14.9007 5.05794 13.4975 3.65482C12.0944 2.25169 10.1914 1.46342 8.20703 1.46342L8.20703 0.738281Z" stroke="#4324FF" stroke-width="2" mask="url(#path-2-inside-1_256_202)"/>
</svg>
