<svg width="19" height="19" viewBox="0 0 19 19" fill="none" xmlns="http://www.w3.org/2000/svg">
<rect width="19" height="19" rx="3" fill="#7C2CFF"/>
<path d="M8.52447 5.46353C8.67415 5.00287 9.32585 5.00287 9.47553 5.46353L10.2348 7.80041C10.3018 8.00642 10.4937 8.1459 10.7104 8.1459H13.1675C13.6519 8.1459 13.8532 8.76571 13.4614 9.05041L11.4735 10.4947C11.2983 10.622 11.2249 10.8477 11.2919 11.0537L12.0512 13.3906C12.2009 13.8512 11.6736 14.2343 11.2818 13.9496L9.29389 12.5053C9.11865 12.378 8.88135 12.378 8.70611 12.5053L6.71824 13.9496C6.32638 14.2343 5.79914 13.8512 5.94882 13.3906L6.70812 11.0537C6.77505 10.8477 6.70172 10.622 6.52648 10.4947L4.53861 9.05041C4.14675 8.76571 4.34814 8.1459 4.8325 8.1459H7.28964C7.50626 8.1459 7.69824 8.00642 7.76517 7.80041L8.52447 5.46353Z" fill="#EBD939"/>
</svg>
